<?xml version="1.0" standalone="no"?>
<!DOCTYPE svg PUBLIC "-//W3C//DTD SVG 20010904//EN"
 "http://www.w3.org/TR/2001/REC-SVG-20010904/DTD/svg10.dtd">
<svg version="1.0" xmlns="http://www.w3.org/2000/svg"
 width="1500.000000pt" height="1500.000000pt" viewBox="0 0 1500.000000 1500.000000"
 preserveAspectRatio="xMidYMid meet">
<metadata>
Created by potrace 1.11, written by Peter Selinger 2001-2013
</metadata>
<g transform="translate(0.000000,1500.000000) scale(0.100000,-0.100000)"
fill="#000000" stroke="none">
<path d="M4145 13224 c-1534 -976 -2804 -1789 -2822 -1807 -25 -25 -121 -239
-444 -992 -226 -528 -415 -973 -420 -990 -5 -16 -111 -898 -234 -1958 l-225
-1929 0 -1056 1 -1057 2592 -1391 2592 -1391 847 -327 847 -326 528 0 527 0
2901 971 c1595 535 3028 1015 3184 1067 245 82 289 100 324 131 78 70 49 -186
367 3308 l290 3188 0 1085 -1 1085 -3609 2083 -3610 2082 -422 0 -423 -1
-2790 -1775z m7020 -734 c1870 -1079 3403 -1965 3407 -1968 4 -5 -3159 -1474
-3602 -1673 l-36 -16 -944 1661 c-520 914 -1043 1834 -1164 2046 -320 563
-1076 1909 -1076 1916 0 3 3 3 8 1 4 -3 1537 -888 3407 -1967z"/>
</g>
</svg>
